<svg width="91" height="91" viewBox="0 0 91 91" fill="none" xmlns="http://www.w3.org/2000/svg">
<path d="M12.497 64.002C5.58925 65.7014 1.97938 56.1039 8.29473 52.8297L8.2953 52.8284L17.1885 48.2199C26.6136 43.3352 31.4715 32.603 28.9169 22.2506L26.5115 12.5017L26.5111 12.5008C24.806 5.58753 34.4064 1.97668 37.6798 8.29988L37.6802 8.30079L42.2949 17.2188C47.196 26.6886 57.9227 31.5589 68.2305 29.0214L77.9573 26.6264L77.9577 26.6273C84.758 24.9539 88.3628 34.2286 82.4491 37.6419L82.1599 37.7997L73.2662 42.4094C63.8411 47.2942 58.9829 58.0262 61.5377 68.3787L63.9441 78.1273C65.6494 85.0405 56.0488 88.6518 52.7754 82.3282L48.1598 73.4106C43.2587 63.9405 32.5322 59.0704 22.2241 61.6079L12.4979 64.0017L12.497 64.002Z" fill="white" stroke="url(#paint0_linear_45_238)" stroke-width="10"/>
<defs>
<linearGradient id="paint0_linear_45_238" x1="31.9886" y1="10.1166" x2="58.4665" y2="80.5121" gradientUnits="userSpaceOnUse">
<stop stop-color="#FF2F70"/>
<stop offset="1" stop-color="#FF8081"/>
</linearGradient>
</defs>
</svg>
